# xmcd
#
# Track frame offsets:
#	150
#	13056
#	29233
#	49504
#	67539
#	85984
#	99504
#	117978
#	136816
#	149164
#	164470
#	177376
#	193553
#	213824
#	231859
#	250304
#	263824
#	282298
#	301136
#	313484
#	340040
#
# Disc length: 4539 seconds
#
# Revision: 1
# Processed by: cddbd v1.5.2PL0 Copyright (c) Steve Scherf et al.
# Submitted via: audiograbber 1.83.01
#
DISCID=3311b915
DTITLE=Top Tunes Country Multiplex - TTM 035
DYEAR=1900
DGENRE=Karaoke
TTITLE0=Michael Chain - Becky Takes Off Her Clothes
TTITLE1=Cledus T. Judd - Breath (parody of Breathe)
TTITLE2=Ray Stevens - Deer Slayer
TTITLE3=Cledus T. Judd - Don't Mess With America (parody of Only In America)
TTITLE4=Cledus T. Judd - Goodbye Squirrel (parody of Goodbye Earl)
TTITLE5=Cledus T. Judd - Indian InLaws (parody of Indian Outlaw)
TTITLE6=Cledus T. Judd - Let's Shoot Dove (parody of Let's Make Love)
TTITLE7=Cledus T. Judd - Man of Constant Borrow (parody of Man of Constant Sorr
TTITLE7=ow)
TTITLE8=Cledus T. Judd - More Beaver (parody of Me Neither)
TTITLE9=Ray Stevens - Osama Yo Mama
TTITLE10=Michael Chain - Becky Takes Off Her Clothes (vocals)
TTITLE11=Cledus T. Judd - Breath (vocals)
TTITLE12=Ray Stevens - Deer Slayer (vocals)
TTITLE13=Cledus T. Judd - Don't Mess With America (vocals)
TTITLE14=Cledus T. Judd - Goodbye Squirrel (vocals)
TTITLE15=Cledus T. Judd - Indian In Laws (vocals)
TTITLE16=Cledus T. Judd - Let's Shoot Dove (vocals)
TTITLE17=Cledus T. Judd - Man of Constant Borrow (vocals)
TTITLE18=Cledus T. Judd - More Beaver (vocals)
TTITLE19=Ray Stevens - Osama Yo Mama (vocals)
TTITLE20=Top Tunes - Data Track
EXTD=
EXTT0=
EXTT1=
EXTT2=
EXTT3=
EXTT4=
EXTT5=
EXTT6=
EXTT7=
EXTT8=
EXTT9=
EXTT10=
EXTT11=
EXTT12=
EXTT13=
EXTT14=
EXTT15=
EXTT16=
EXTT17=
EXTT18=
EXTT19=
EXTT20=
PLAYORDER=
